<svg viewBox="0 0 128 128" xmlns="http://www.w3.org/2000/svg">
    <path fill-rule="evenodd" clip-rule="evenodd"
        d="M7.65687 69.8823C4.53267 66.7581 4.53267 61.6927 7.65687 58.5686L58.5686 7.65687C61.6927 4.53267 66.7581 4.53267 69.8823 7.65687L120.794 58.5686C123.918 61.6928 123.918 66.7581 120.794 69.8823L69.8823 120.794C66.7581 123.918 61.6927 123.918 58.5686 120.794L7.65687 69.8823ZM61 82.5815C58.0682 83.7683 56 86.6426 56 90C56 94.4183 59.5817 98 64 98C68.4183 98 72 94.4183 72 90C72 86.6426 69.9318 83.7683 67 82.5815V45.4185L67.0605 45.3937C67.0818 45.3849 67.1031 45.376 67.1243 45.3669L82.6331 60.8757C82.2255 61.8356 82 62.8915 82 64C82 68.4183 85.5817 72 90 72C94.4183 72 98 68.4183 98 64C98 59.5817 94.4183 56 90 56C88.8915 56 87.8356 56.2255 86.8757 56.6331L71.367 41.1243C71.7745 40.1644 72 39.1086 72 38C72 33.5817 68.4183 30 64 30C59.5817 30 56 33.5817 56 38C56 39.1086 56.2255 40.1644 56.6331 41.1243L41.1243 56.6331C40.1644 56.2255 39.1086 56 38 56C33.5817 56 30 59.5817 30 64C30 68.4183 33.5817 72 38 72C42.4183 72 46 68.4183 46 64C46 62.8915 45.7745 61.8356 45.367 60.8757L60.8757 45.3669C60.917 45.3845 60.9584 45.4016 61 45.4185V82.5815Z" />
</svg>