<?xml version="1.0" standalone="no"?>
<!DOCTYPE svg PUBLIC "-//W3C//DTD SVG 20010904//EN"
 "http://www.w3.org/TR/2001/REC-SVG-20010904/DTD/svg10.dtd">
<svg version="1.0" xmlns="http://www.w3.org/2000/svg"
 width="700.000000pt" height="700.000000pt" viewBox="0 0 700.000000 700.000000"
 preserveAspectRatio="xMidYMid meet">
<metadata>
Created by potrace 1.14, written by Peter Selinger 2001-2017
</metadata>
<g transform="translate(0.000000,700.000000) scale(0.100000,-0.100000)"
fill="#000000" stroke="none">
<path d="M3400 6693 c-121 -35 -78 6 -1590 -1506 -1280 -1280 -1444 -1448
-1470 -1501 -74 -150 -62 -312 31 -446 21 -30 678 -694 1461 -1476 1500 -1497
1446 -1446 1570 -1484 48 -14 164 -14 219 0 120 32 82 -4 1591 1505 1150 1151
1439 1445 1465 1492 71 128 74 275 7 408 -33 66 -123 158 -1472 1506 -1257
1256 -1445 1440 -1497 1467 -104 52 -215 64 -315 35z m225 -1354 c134 -41 228
-128 281 -260 21 -52 26 -81 27 -154 0 -58 -6 -104 -16 -130 l-15 -40 425
-426 425 -426 41 14 c52 18 151 23 214 12 122 -23 247 -118 303 -232 38 -80
49 -132 45 -220 -7 -138 -63 -243 -178 -330 -127 -95 -314 -109 -457 -35 -61
31 -160 132 -189 192 -47 97 -58 218 -27 319 l14 47 -424 425 c-233 233 -425
421 -427 417 -2 -4 -3 -461 -3 -1016 l1 -1009 40 -22 c216 -121 294 -392 174
-603 -173 -301 -614 -288 -769 23 -104 208 -28 454 175 572 l50 29 1 1010 c0
555 -1 1012 -3 1016 -2 4 -194 -184 -427 -417 l-424 -425 14 -47 c80 -265
-115 -542 -392 -558 -82 -4 -147 9 -220 46 -268 135 -323 494 -109 703 111
107 294 151 432 103 l41 -14 424 423 423 423 -13 43 c-99 332 215 648 543 547z"/>
</g>
</svg>
